<?xml version="1.0" encoding="UTF-8"?>
<!--Generator: Apple Native CoreSVG 329-->
<!DOCTYPE svg
PUBLIC "-//W3C//DTD SVG 1.1//EN"
       "http://www.w3.org/Graphics/SVG/1.1/DTD/svg11.dtd">
<svg version="1.1" xmlns="http://www.w3.org/2000/svg" xmlns:xlink="http://www.w3.org/1999/xlink" viewBox="0 0 3300 2200">
 <!--glyph: "100306", point size: 100.0, font version: "20.0d8e1", template writer version: "138.0.0"-->
 <style>.monochrome-0 {-sfsymbols-motion-group:0;-sfsymbols-layer-tags:slider.horizontal.3}

.multicolor-0:tintColor {-sfsymbols-motion-group:0;-sfsymbols-layer-tags:slider.horizontal.3}

.hierarchical-0:primary {-sfsymbols-motion-group:0;-sfsymbols-layer-tags:slider.horizontal.3}

.SFSymbolsPreviewWireframe {fill:none;opacity:1.0;stroke:black;stroke-width:0.5}
</style>
 <g id="Notes">
  <rect height="2200" id="artboard" style="fill:white;opacity:1" width="3300" x="0" y="0"/>
  <line style="fill:none;stroke:black;opacity:1;stroke-width:0.5;" x1="263" x2="3036" y1="292" y2="292"/>
  <text style="stroke:none;fill:black;font-family:sans-serif;font-size:13;font-weight:bold;" transform="matrix(1 0 0 1 263 322)">Weight/Scale Variations</text>
  <text style="stroke:none;fill:black;font-family:sans-serif;font-size:13;text-anchor:middle;" transform="matrix(1 0 0 1 559.711 322)">Ultralight</text>
  <text style="stroke:none;fill:black;font-family:sans-serif;font-size:13;text-anchor:middle;" transform="matrix(1 0 0 1 856.422 322)">Thin</text>
  <text style="stroke:none;fill:black;font-family:sans-serif;font-size:13;text-anchor:middle;" transform="matrix(1 0 0 1 1153.13 322)">Light</text>
  <text style="stroke:none;fill:black;font-family:sans-serif;font-size:13;text-anchor:middle;" transform="matrix(1 0 0 1 1449.84 322)">Regular</text>
  <text style="stroke:none;fill:black;font-family:sans-serif;font-size:13;text-anchor:middle;" transform="matrix(1 0 0 1 1746.56 322)">Medium</text>
  <text style="stroke:none;fill:black;font-family:sans-serif;font-size:13;text-anchor:middle;" transform="matrix(1 0 0 1 2043.27 322)">Semibold</text>
  <text style="stroke:none;fill:black;font-family:sans-serif;font-size:13;text-anchor:middle;" transform="matrix(1 0 0 1 2339.98 322)">Bold</text>
  <text style="stroke:none;fill:black;font-family:sans-serif;font-size:13;text-anchor:middle;" transform="matrix(1 0 0 1 2636.69 322)">Heavy</text>
  <text style="stroke:none;fill:black;font-family:sans-serif;font-size:13;text-anchor:middle;" transform="matrix(1 0 0 1 2933.4 322)">Black</text>
  <line style="fill:none;stroke:black;opacity:1;stroke-width:0.5;" x1="263" x2="3036" y1="1903" y2="1903"/>
  <g transform="matrix(0.2 0 0 0.2 263 1933)">
   <path d="m46.2402 4.15039c21.7773 0 39.4531-17.627 39.4531-39.4043s-17.6758-39.4043-39.4531-39.4043c-21.7285 0-39.4043 17.627-39.4043 39.4043s17.6758 39.4043 39.4043 39.4043Zm0-7.42188c-17.6758 0-31.9336-14.3066-31.9336-31.9824s14.2578-31.9824 31.9336-31.9824 31.9824 14.3066 31.9824 31.9824-14.3066 31.9824-31.9824 31.9824Zm-17.9688-31.9824c0 2.14844 1.51367 3.61328 3.75977 3.61328h10.498v10.5957c0 2.19727 1.46484 3.71094 3.61328 3.71094 2.24609 0 3.71094-1.51367 3.71094-3.71094v-10.5957h10.5957c2.19727 0 3.71094-1.46484 3.71094-3.61328 0-2.19727-1.51367-3.71094-3.71094-3.71094h-10.5957v-10.5469c0-2.24609-1.46484-3.75977-3.71094-3.75977-2.14844 0-3.61328 1.51367-3.61328 3.75977v10.5469h-10.498c-2.24609 0-3.75977 1.51367-3.75977 3.71094Z"/>
  </g>
  <g transform="matrix(0.2 0 0 0.2 281.506 1933)">
   <path d="m58.5449 14.5508c27.4902 0 49.8047-22.3145 49.8047-49.8047s-22.3145-49.8047-49.8047-49.8047-49.8047 22.3145-49.8047 49.8047 22.3145 49.8047 49.8047 49.8047Zm0-8.30078c-22.9492 0-41.5039-18.5547-41.5039-41.5039s18.5547-41.5039 41.5039-41.5039 41.5039 18.5547 41.5039 41.5039-18.5547 41.5039-41.5039 41.5039Zm-22.6562-41.5039c0 2.39258 1.66016 4.00391 4.15039 4.00391h14.3555v14.4043c0 2.44141 1.66016 4.15039 4.05273 4.15039 2.44141 0 4.15039-1.66016 4.15039-4.15039v-14.4043h14.4043c2.44141 0 4.15039-1.61133 4.15039-4.00391 0-2.44141-1.70898-4.15039-4.15039-4.15039h-14.4043v-14.3555c0-2.49023-1.70898-4.19922-4.15039-4.19922-2.39258 0-4.05273 1.70898-4.05273 4.19922v14.3555h-14.3555c-2.49023 0-4.15039 1.70898-4.15039 4.15039Z"/>
  </g>
  <g transform="matrix(0.2 0 0 0.2 304.924 1933)">
   <path d="m74.8535 28.3203c35.1074 0 63.623-28.4668 63.623-63.5742s-28.5156-63.623-63.623-63.623-63.5742 28.5156-63.5742 63.623 28.4668 63.5742 63.5742 63.5742Zm0-9.08203c-30.127 0-54.4922-24.3652-54.4922-54.4922s24.3652-54.4922 54.4922-54.4922 54.4922 24.3652 54.4922 54.4922-24.3652 54.4922-54.4922 54.4922Zm-28.8574-54.4922c0 2.58789 1.85547 4.39453 4.58984 4.39453h19.7266v19.7754c0 2.68555 1.85547 4.58984 4.44336 4.58984 2.68555 0 4.54102-1.85547 4.54102-4.58984v-19.7754h19.7754c2.68555 0 4.58984-1.80664 4.58984-4.39453 0-2.73438-1.85547-4.58984-4.58984-4.58984h-19.7754v-19.7266c0-2.73438-1.85547-4.63867-4.54102-4.63867-2.58789 0-4.44336 1.9043-4.44336 4.63867v19.7266h-19.7266c-2.73438 0-4.58984 1.85547-4.58984 4.58984Z"/>
  </g>
  <text style="stroke:none;fill:black;font-family:sans-serif;font-size:13;font-weight:bold;" transform="matrix(1 0 0 1 263 1953)">Design Variations</text>
  <text style="stroke:none;fill:black;font-family:sans-serif;font-size:13;" transform="matrix(1 0 0 1 263 1971)">Symbols are supported in up to nine weights and three scales.</text>
  <text style="stroke:none;fill:black;font-family:sans-serif;font-size:13;" transform="matrix(1 0 0 1 263 1989)">For optimal layout with text and other symbols, vertically align</text>
  <text style="stroke:none;fill:black;font-family:sans-serif;font-size:13;" transform="matrix(1 0 0 1 263 2007)">symbols with the adjacent text.</text>
  <line style="fill:none;stroke:#00AEEF;stroke-width:0.5;opacity:1.0;" x1="776" x2="776" y1="1919" y2="1933"/>
  <g transform="matrix(0.2 0 0 0.2 776 1933)">
   <path d="m16.5527 0.78125c2.58789 0 3.85742-0.976562 4.78516-3.71094l6.29883-17.2363h28.8086l6.29883 17.2363c0.927734 2.73438 2.19727 3.71094 4.73633 3.71094 2.58789 0 4.24805-1.5625 4.24805-4.00391 0-0.830078-0.146484-1.61133-0.537109-2.63672l-22.9004-60.9863c-1.12305-2.97852-3.125-4.49219-6.25-4.49219-3.02734 0-5.07812 1.46484-6.15234 4.44336l-22.9004 61.084c-0.390625 1.02539-0.537109 1.80664-0.537109 2.63672 0 2.44141 1.5625 3.95508 4.10156 3.95508Zm13.4766-28.3691 11.8652-32.8613h0.244141l11.8652 32.8613Z"/>
  </g>
  <line style="fill:none;stroke:#00AEEF;stroke-width:0.5;opacity:1.0;" x1="792.836" x2="792.836" y1="1919" y2="1933"/>
  <text style="stroke:none;fill:black;font-family:sans-serif;font-size:13;font-weight:bold;" transform="matrix(1 0 0 1 776 1953)">Margins</text>
  <text style="stroke:none;fill:black;font-family:sans-serif;font-size:13;" transform="matrix(1 0 0 1 776 1971)">Leading and trailing margins on the left and right side of each symbol</text>
  <text style="stroke:none;fill:black;font-family:sans-serif;font-size:13;" transform="matrix(1 0 0 1 776 1989)">can be adjusted by modifying the x-location of the margin guidelines.</text>
  <text style="stroke:none;fill:black;font-family:sans-serif;font-size:13;" transform="matrix(1 0 0 1 776 2007)">Modifications are automatically applied proportionally to all</text>
  <text style="stroke:none;fill:black;font-family:sans-serif;font-size:13;" transform="matrix(1 0 0 1 776 2025)">scales and weights.</text>
  <g transform="matrix(0.2 0 0 0.2 1289 1933)">
   <path d="m14.209 9.32617 8.49609 8.54492c4.29688 4.3457 9.22852 4.05273 13.8672-1.07422l53.4668-58.9355-4.83398-4.88281-53.0762 58.3984c-1.75781 2.00195-3.41797 2.49023-5.76172 0.146484l-5.85938-5.81055c-2.34375-2.29492-1.80664-4.00391 0.195312-5.81055l57.373-54.0039-4.88281-4.83398-57.959 54.4434c-4.93164 4.58984-5.32227 9.47266-1.02539 13.8184Zm32.0801-90.9668c-2.09961 2.05078-2.24609 4.93164-1.07422 6.88477 1.17188 1.80664 3.4668 2.97852 6.68945 2.14844 7.32422-1.70898 14.9414-2.00195 22.0703 2.68555l-2.92969 7.27539c-1.70898 4.15039-0.830078 7.08008 1.85547 9.81445l11.4746 11.5723c2.44141 2.44141 4.49219 2.53906 7.32422 2.05078l5.32227-0.976562 3.32031 3.36914-0.195312 2.7832c-0.195312 2.49023 0.439453 4.39453 2.88086 6.78711l3.80859 3.71094c2.39258 2.39258 5.46875 2.53906 7.8125 0.195312l14.5508-14.5996c2.34375-2.34375 2.24609-5.32227-0.146484-7.71484l-3.85742-3.80859c-2.39258-2.39258-4.24805-3.17383-6.64062-2.97852l-2.88086 0.244141-3.22266-3.17383 1.2207-5.61523c0.634766-2.83203-0.146484-5.0293-3.07617-7.95898l-10.9863-10.9375c-16.6992-16.6016-38.8672-16.2109-53.3203-1.75781Zm7.4707 1.85547c12.1582-8.88672 28.6133-7.37305 39.7461 3.75977l12.1582 12.0605c1.17188 1.17188 1.36719 2.09961 1.02539 3.80859l-1.61133 7.42188 7.51953 7.42188 4.93164-0.292969c1.26953-0.0488281 1.66016 0.0488281 2.63672 1.02539l2.88086 2.88086-12.207 12.207-2.88086-2.88086c-0.976562-0.976562-1.12305-1.36719-1.07422-2.68555l0.341797-4.88281-7.4707-7.42188-7.61719 1.26953c-1.61133 0.341797-2.34375 0.195312-3.56445-0.976562l-10.0098-10.0098c-1.26953-1.17188-1.41602-2.00195-0.634766-3.85742l4.39453-10.4492c-7.8125-7.27539-17.9688-10.4004-28.125-7.42188-0.78125 0.195312-1.07422-0.439453-0.439453-0.976562Z"/>
  </g>
  <text style="stroke:none;fill:black;font-family:sans-serif;font-size:13;font-weight:bold;" transform="matrix(1 0 0 1 1289 1953)">Exporting</text>
  <text style="stroke:none;fill:black;font-family:sans-serif;font-size:13;" transform="matrix(1 0 0 1 1289 1971)">Symbols should be outlined when exporting to ensure the</text>
  <text style="stroke:none;fill:black;font-family:sans-serif;font-size:13;" transform="matrix(1 0 0 1 1289 1989)">design is preserved when submitting to Xcode.</text>
  <text id="template-version" style="stroke:none;fill:black;font-family:sans-serif;font-size:13;text-anchor:end;" transform="matrix(1 0 0 1 3036 1933)">Template v.5.0</text>
  <text style="stroke:none;fill:black;font-family:sans-serif;font-size:13;text-anchor:end;" transform="matrix(1 0 0 1 3036 1951)">Requires Xcode 15 or greater</text>
  <text id="descriptive-name" style="stroke:none;fill:black;font-family:sans-serif;font-size:13;text-anchor:end;" transform="matrix(1 0 0 1 3036 1969)">Generated from slider.horizontal.3</text>
  <text style="stroke:none;fill:black;font-family:sans-serif;font-size:13;text-anchor:end;" transform="matrix(1 0 0 1 3036 1987)">Typeset at 100.0 points</text>
  <text style="stroke:none;fill:black;font-family:sans-serif;font-size:13;" transform="matrix(1 0 0 1 263 726)">Small</text>
  <text style="stroke:none;fill:black;font-family:sans-serif;font-size:13;" transform="matrix(1 0 0 1 263 1156)">Medium</text>
  <text style="stroke:none;fill:black;font-family:sans-serif;font-size:13;" transform="matrix(1 0 0 1 263 1586)">Large</text>
 </g>
 <g id="Guides">
  <g id="H-reference" style="fill:#27AAE1;stroke:none;" transform="matrix(1 0 0 1 339 696)">
   <path d="M0.993654 0L3.63775 0L29.3281-67.1323L30.0303-67.1323L30.0303-70.459L28.1226-70.459ZM11.6885-24.4799L46.9815-24.4799L46.2315-26.7285L12.4385-26.7285ZM55.1196 0L57.7637 0L30.6382-70.459L29.4326-70.459L29.4326-67.1323Z"/>
  </g>
  <line id="Baseline-S" style="fill:none;stroke:#27AAE1;opacity:1;stroke-width:0.5;" x1="263" x2="3036" y1="696" y2="696"/>
  <line id="Capline-S" style="fill:none;stroke:#27AAE1;opacity:1;stroke-width:0.5;" x1="263" x2="3036" y1="625.541" y2="625.541"/>
  <g id="H-reference" style="fill:#27AAE1;stroke:none;" transform="matrix(1 0 0 1 339 1126)">
   <path d="M0.993654 0L3.63775 0L29.3281-67.1323L30.0303-67.1323L30.0303-70.459L28.1226-70.459ZM11.6885-24.4799L46.9815-24.4799L46.2315-26.7285L12.4385-26.7285ZM55.1196 0L57.7637 0L30.6382-70.459L29.4326-70.459L29.4326-67.1323Z"/>
  </g>
  <line id="Baseline-M" style="fill:none;stroke:#27AAE1;opacity:1;stroke-width:0.5;" x1="263" x2="3036" y1="1126" y2="1126"/>
  <line id="Capline-M" style="fill:none;stroke:#27AAE1;opacity:1;stroke-width:0.5;" x1="263" x2="3036" y1="1055.54" y2="1055.54"/>
  <g id="H-reference" style="fill:#27AAE1;stroke:none;" transform="matrix(1 0 0 1 339 1556)">
   <path d="M0.993654 0L3.63775 0L29.3281-67.1323L30.0303-67.1323L30.0303-70.459L28.1226-70.459ZM11.6885-24.4799L46.9815-24.4799L46.2315-26.7285L12.4385-26.7285ZM55.1196 0L57.7637 0L30.6382-70.459L29.4326-70.459L29.4326-67.1323Z"/>
  </g>
  <line id="Baseline-L" style="fill:none;stroke:#27AAE1;opacity:1;stroke-width:0.5;" x1="263" x2="3036" y1="1556" y2="1556"/>
  <line id="Capline-L" style="fill:none;stroke:#27AAE1;opacity:1;stroke-width:0.5;" x1="263" x2="3036" y1="1485.54" y2="1485.54"/>
  <line id="right-margin-Black-S" style="fill:none;stroke:#00AEEF;stroke-width:0.5;opacity:1.0;" x1="2987.11" x2="2987.11" y1="600.785" y2="720.121"/>
  <line id="left-margin-Black-S" style="fill:none;stroke:#00AEEF;stroke-width:0.5;opacity:1.0;" x1="2879.69" x2="2879.69" y1="600.785" y2="720.121"/>
  <line id="right-margin-Regular-S" style="fill:none;stroke:#00AEEF;stroke-width:0.5;opacity:1.0;" x1="1498.55" x2="1498.55" y1="600.785" y2="720.121"/>
  <line id="left-margin-Regular-S" style="fill:none;stroke:#00AEEF;stroke-width:0.5;opacity:1.0;" x1="1401.14" x2="1401.14" y1="600.785" y2="720.121"/>
  <line id="right-margin-Ultralight-S" style="fill:none;stroke:#00AEEF;stroke-width:0.5;opacity:1.0;" x1="606.215" x2="606.215" y1="600.785" y2="720.121"/>
  <line id="left-margin-Ultralight-S" style="fill:none;stroke:#00AEEF;stroke-width:0.5;opacity:1.0;" x1="513.207" x2="513.207" y1="600.785" y2="720.121"/>
 </g>
 <g id="Symbols">
  <g id="Black-S" transform="matrix(1 0 0 1 2879.69 696)">
   <path class="monochrome-0 multicolor-0:tintColor hierarchical-0:primary SFSymbolsPreviewWireframe" d="M70.3613 2.92969C77.5391 2.92969 83.3984-2.92969 83.3984-10.1074C83.3984-17.2852 77.5879-23.1445 70.3613-23.1445C63.1836-23.1445 57.3242-17.2852 57.3242-10.1074C57.3242-2.92969 63.1836 2.92969 70.3613 2.92969ZM70.3613-4.3457C67.1875-4.3457 64.5996-6.93359 64.5996-10.1074C64.5996-13.3789 67.1875-15.8691 70.3613-15.8691C73.6328-15.8691 76.123-13.3789 76.123-10.1074C76.123-6.93359 73.6328-4.3457 70.3613-4.3457ZM61.7188-16.4551L15.8691-16.4551C12.4512-16.4551 9.76562-13.4766 9.76562-10.1074C9.76562-6.88477 12.5-3.75977 15.8691-3.75977L61.7188-3.75977ZM91.5527-16.4551L78.7109-16.4551L78.7109-3.75977L91.5527-3.75977C94.9707-3.75977 97.6562-6.78711 97.6562-10.1074C97.6562-13.5742 95.0195-16.4551 91.5527-16.4551ZM37.5977-23.1445C44.6777-23.1445 50.6348-29.0039 50.6348-36.1816C50.6348-43.3594 44.7754-49.2188 37.5977-49.2188C30.4199-49.2188 24.5605-43.3594 24.5605-36.1816C24.5605-29.0039 30.4199-23.1445 37.5977-23.1445ZM37.5977-30.4199C34.4238-30.4199 31.8359-33.0078 31.8359-36.1816C31.8359-39.4531 34.4238-41.9434 37.5977-41.9434C40.8691-41.9434 43.3594-39.4531 43.3594-36.1816C43.3594-33.0078 40.8691-30.4199 37.5977-30.4199ZM15.8691-42.5293C12.4512-42.5293 9.76562-39.5508 9.76562-36.1816C9.76562-32.959 12.5-29.834 15.8691-29.834L29.6875-29.834L29.6875-42.5293ZM91.5527-42.5293L45.7031-42.5293L45.7031-29.834L91.5527-29.834C94.9707-29.834 97.6562-32.8613 97.6562-36.1816C97.6562-39.6484 95.0195-42.5293 91.5527-42.5293ZM70.3613-49.2188C77.5391-49.2188 83.3984-55.0781 83.3984-62.2559C83.3984-69.4336 77.5391-75.293 70.3613-75.293C63.1836-75.293 57.3242-69.4336 57.3242-62.2559C57.3242-55.0781 63.1836-49.2188 70.3613-49.2188ZM70.3613-56.4941C67.1875-56.4941 64.5996-59.082 64.5996-62.2559C64.5996-65.5273 67.1875-68.0176 70.3613-68.0176C73.6328-68.0176 76.123-65.5273 76.123-62.2559C76.123-59.082 73.6328-56.4941 70.3613-56.4941ZM61.7188-68.6035L15.8691-68.6035C12.4512-68.6035 9.76562-65.625 9.76562-62.2559C9.76562-59.0332 12.5-55.9082 15.8691-55.9082L61.7188-55.9082ZM91.5527-68.6035L78.7109-68.6035L78.7109-55.9082L91.5527-55.9082C94.9707-55.9082 97.6562-58.9355 97.6562-62.2559C97.6562-65.7227 95.0195-68.6035 91.5527-68.6035Z"/>
  </g>
  <g id="Regular-S" transform="matrix(1 0 0 1 1401.14 696)">
   <path class="monochrome-0 multicolor-0:tintColor hierarchical-0:primary SFSymbolsPreviewWireframe" d="M62.0117-2.29492C67.2852-2.29492 71.582-6.5918 71.582-11.8652C71.582-17.0898 67.2852-21.3867 62.0117-21.3867C56.7383-21.3867 52.4414-17.0898 52.4414-11.8652C52.4414-6.5918 56.7383-2.29492 62.0117-2.29492ZM62.0117-7.51953C59.5703-7.51953 57.666-9.42383 57.666-11.8652C57.666-14.3066 59.5703-16.2109 62.0117-16.2109C64.4531-16.2109 66.3574-14.3066 66.3574-11.8652C66.3574-9.42383 64.4531-7.51953 62.0117-7.51953ZM56.0059-15.3809L13.2812-15.3809C11.3281-15.3809 9.76562-13.8184 9.76562-11.8652C9.76562-9.86328 11.3281-8.34961 13.2812-8.34961L56.0059-8.34961ZM84.2773-15.3809L68.75-15.3809L68.75-8.34961L84.2773-8.34961C86.084-8.34961 87.6465-9.86328 87.6465-11.8652C87.6465-13.8184 86.084-15.3809 84.2773-15.3809ZM35.498-25.6348C40.7715-25.6348 45.0684-29.9316 45.0684-35.2051C45.0684-40.4297 40.7715-44.7266 35.498-44.7266C30.2246-44.7266 25.9277-40.4297 25.9277-35.2051C25.9277-29.9316 30.2246-25.6348 35.498-25.6348ZM35.498-30.8594C33.0566-30.8594 31.1523-32.7637 31.1523-35.2051C31.1523-37.6465 33.0566-39.5508 35.498-39.5508C37.9395-39.5508 39.8438-37.6465 39.8438-35.2051C39.8438-32.7637 37.9395-30.8594 35.498-30.8594ZM13.0859-38.7207C11.3281-38.7207 9.76562-37.1582 9.76562-35.2051C9.76562-33.2031 11.3281-31.6895 13.0859-31.6895L28.8086-31.6895L28.8086-38.7207ZM84.1309-38.7207L41.5527-38.7207L41.5527-31.6895L84.1309-31.6895C86.084-31.6895 87.6465-33.2031 87.6465-35.2051C87.6465-37.1582 86.084-38.7207 84.1309-38.7207ZM62.0117-48.9746C67.2852-48.9746 71.582-53.2715 71.582-58.5449C71.582-63.8184 67.2852-68.1152 62.0117-68.1152C56.7383-68.1152 52.4414-63.8184 52.4414-58.5449C52.4414-53.2715 56.7383-48.9746 62.0117-48.9746ZM62.0117-54.1992C59.5703-54.1992 57.666-56.1523 57.666-58.5449C57.666-61.0352 59.5703-62.8906 62.0117-62.8906C64.4531-62.8906 66.3574-61.0352 66.3574-58.5449C66.3574-56.1523 64.4531-54.1992 62.0117-54.1992ZM56.2988-62.0605L13.2812-62.0605C11.3281-62.0605 9.76562-60.498 9.76562-58.5449C9.76562-56.5918 11.3281-55.0293 13.2812-55.0293L56.2988-55.0293ZM84.2773-62.0605L68.0664-62.0605L68.0664-55.0293L84.2773-55.0293C86.084-55.0293 87.6465-56.5918 87.6465-58.5449C87.6465-60.498 86.084-62.0605 84.2773-62.0605Z"/>
  </g>
  <g id="Ultralight-S" transform="matrix(1 0 0 1 513.207 696)">
   <path class="monochrome-0 multicolor-0:tintColor hierarchical-0:primary SFSymbolsPreviewWireframe" d="M62.0117-4.02049C66.1499-4.02049 69.584-7.40917 69.584-11.5928C69.584-15.7275 66.1499-19.1616 62.0117-19.1616C57.8735-19.1616 54.4394-15.7275 54.4394-11.5928C54.4394-7.40917 57.8735-4.02049 62.0117-4.02049ZM62.0117-6.52052C59.1616-6.52052 56.9395-8.78809 56.9395-11.6382C56.9395-14.4883 59.1616-16.7104 62.0117-16.7104C64.8618-16.7104 67.084-14.4883 67.084-11.6382C67.084-8.78809 64.8618-6.52052 62.0117-6.52052ZM55.7334-12.7471L10.8745-12.7471C10.2383-12.7471 9.76562-12.229 9.76562-11.6382C9.76562-11.0439 10.2383-10.5293 10.8745-10.5293L55.7334-10.5293ZM82.1431-12.7471L68.2051-12.7471L68.2051-10.5293L82.1431-10.5293C82.7237-10.5293 83.2417-11.0439 83.2417-11.6382C83.2417-12.229 82.7237-12.7471 82.1431-12.7471ZM32.9097-27.4512C37.0479-27.4512 40.482-30.8398 40.482-35.0234C40.482-39.1582 37.0479-42.5923 32.9097-42.5923C28.7261-42.5923 25.3374-39.1582 25.3374-35.0234C25.3374-30.8398 28.7261-27.4512 32.9097-27.4512ZM32.9097-29.9512C30.0596-29.9512 27.792-32.2188 27.792-35.0688C27.792-37.9189 30.0596-40.1411 32.9097-40.1411C35.7598-40.1411 37.9819-37.9189 37.9819-35.0688C37.9819-32.2188 35.7598-29.9512 32.9097-29.9512ZM10.8609-36.1778C10.2383-36.1778 9.76562-35.6597 9.76562-35.0688C9.76562-34.4746 10.2383-33.9599 10.8609-33.9599L26.8106-33.9599L26.8106-36.1778ZM82.1328-36.1778L39.1006-36.1778L39.1006-33.9599L82.1328-33.9599C82.7237-33.9599 83.2417-34.4746 83.2417-35.0688C83.2417-35.6597 82.7237-36.1778 82.1328-36.1778ZM62.0117-51.0181C66.1499-51.0181 69.584-54.4521 69.584-58.5903C69.584-62.7285 66.1499-66.1626 62.0117-66.1626C57.8735-66.1626 54.4394-62.7285 54.4394-58.5903C54.4394-54.4521 57.8735-51.0181 62.0117-51.0181ZM62.0117-53.5181C59.1616-53.5181 56.9395-55.7891 56.9395-58.6357C56.9395-61.4893 59.1616-63.708 62.0117-63.708C64.8618-63.708 67.084-61.4893 67.084-58.6357C67.084-55.7891 64.8618-53.5181 62.0117-53.5181ZM55.436-59.6084L10.8745-59.6084C10.2383-59.6084 9.76562-59.0903 9.76562-58.4995C9.76562-57.9087 10.2383-57.3906 10.8745-57.3906L55.436-57.3906ZM82.1431-59.6084L68.4297-59.6084L68.4297-57.3906L82.1431-57.3906C82.7237-57.3906 83.2417-57.9087 83.2417-58.4995C83.2417-59.0903 82.7237-59.6084 82.1431-59.6084Z"/>
  </g>
 </g>
</svg>
